HIERARCHY
ROOT joint_Root
{
	OFFSET 0.0 0.0 0.0
	CHANNELS 6 Xposition Yposition Zposition Zrotation Xrotation Yrotation 
	JOINT Hips
	{
		OFFSET -17.1583 93.1646 452.98
		CHANNELS 6 Xposition Yposition Zposition Zrotation Xrotation Yrotation 
		JOINT Spine
		{
			OFFSET 15.7357 0.0 0.0
			CHANNELS 6 Xposition Yposition Zposition Zrotation Xrotation Yrotation 
			JOINT Chest
			{
				OFFSET 8.98455 -0.406207 0.0
				CHANNELS 6 Xposition Yposition Zposition Zrotation Xrotation Yrotation 
				JOINT Neck
				{
					OFFSET 16.3773 0.0 0.0
					CHANNELS 6 Xposition Yposition Zposition Zrotation Xrotation Yrotation 
					JOINT Head
					{
						OFFSET 6.45672 0.0 0.0
						CHANNELS 6 Xposition Yposition Zposition Zrotation Xrotation Yrotation 
						End Site
						{
							OFFSET 0.0 0.0 0.0
						}
					}
				}
				JOINT Shoulder_L
				{
					OFFSET 12.9942 -0.242716 4.98039
					CHANNELS 6 Xposition Yposition Zposition Zrotation Xrotation Yrotation 
					JOINT UpperArm_L
					{
						OFFSET 5.34809 0.0 0.0
						CHANNELS 6 Xposition Yposition Zposition Zrotation Xrotation Yrotation 
						JOINT LowerArm_L
						{
							OFFSET 24.3286 1.87007e-05 0.0
							CHANNELS 6 Xposition Yposition Zposition Zrotation Xrotation Yrotation 
							JOINT Hand_L
							{
								OFFSET 22.2916 0.0 0.0
								CHANNELS 6 Xposition Yposition Zposition Zrotation Xrotation Yrotation 
								End Site
								{
									OFFSET 0.0 0.0 0.0
								}
							}
						}
					}
				}
				JOINT Shoulder_R
				{
					OFFSET 12.9945 -0.242716 -4.98039
					CHANNELS 6 Xposition Yposition Zposition Zrotation Xrotation Yrotation 
					JOINT UpperArm_R
					{
						OFFSET -5.34813 0.0 0.0
						CHANNELS 6 Xposition Yposition Zposition Zrotation Xrotation Yrotation 
						JOINT LowerArm_R
						{
							OFFSET -24.3289 0.000322201 0.0
							CHANNELS 6 Xposition Yposition Zposition Zrotation Xrotation Yrotation 
							JOINT Hand_R
							{
								OFFSET -22.2915 -0.000108084 0.0
								CHANNELS 6 Xposition Yposition Zposition Zrotation Xrotation Yrotation 
								End Site
								{
									OFFSET 0.0 0.0 0.0
								}
							}
						}
					}
				}
			}
		}
		JOINT UpperLeg_L
		{
			OFFSET -2.19248 -6.46944 0.0
			CHANNELS 6 Xposition Yposition Zposition Zrotation Xrotation Yrotation 
			JOINT LowerLeg_L
			{
				OFFSET 39.0811 0.0 -1.23785e-05
				CHANNELS 6 Xposition Yposition Zposition Zrotation Xrotation Yrotation 
				JOINT Foot_L
				{
					OFFSET 40.9854 0.0 -1.26872e-05
					CHANNELS 6 Xposition Yposition Zposition Zrotation Xrotation Yrotation 
					JOINT Toes_L
					{
						OFFSET 11.7543 0.0 0.0
						CHANNELS 6 Xposition Yposition Zposition Zrotation Xrotation Yrotation 
						End Site
						{
							OFFSET 0.0 0.0 0.0
						}
					}
				}
			}
		}
		JOINT UpperLeg_R
		{
			OFFSET -2.19251 6.46944 0.0
			CHANNELS 6 Xposition Yposition Zposition Zrotation Xrotation Yrotation 
			JOINT LowerLeg_R
			{
				OFFSET -39.0811 -0.00228153 -0.0401928
				CHANNELS 6 Xposition Yposition Zposition Zrotation Xrotation Yrotation 
				JOINT Foot_R
				{
					OFFSET -40.9854 0.0 0.0
					CHANNELS 6 Xposition Yposition Zposition Zrotation Xrotation Yrotation 
					JOINT Toes_R
					{
						OFFSET -11.7543 0.0 0.0
						CHANNELS 6 Xposition Yposition Zposition Zrotation Xrotation Yrotation 
						End Site
						{
							OFFSET 0.0 0.0 0.0
						}
					}
				}
			}
		}
	}
}
MOTION
Frames:	4
Frame Time:	0.0333333
0.000000 0.000000 0.000000 0.000000 0.000000 -0.000000 -6.398010 91.135300 -0.580119 83.669500 0.937713 8.285810 15.735700 0.000005 -0.000001 77.858900 85.684400 -75.396200 8.984550 -0.406207 -0.000000 0.719753 -1.965990 4.934590 16.377300 -0.000001 -0.000001 16.081900 2.653290 2.915760 6.456720 -0.000001 -0.000000 -3.999850 1.642160 12.089300 12.994200 -0.242716 4.980390 -92.760800 7.467670 -69.643400 5.348090 -0.000007 -0.000001 -76.139700 -25.747200 -7.676690 24.328600 0.000019 0.000005 46.428000 -41.350400 -122.150000 22.291600 -0.000001 0.000005 60.558700 4.963350 8.099550 12.994500 -0.242716 -4.980390 86.562800 8.286430 -67.376300 -5.348130 -0.000001 -0.000004 -66.006900 -5.229870 -6.120980 -24.328900 0.000322 -0.000009 19.944500 -20.226400 -133.613000 -22.291500 -0.000108 -0.000004 55.741600 5.673150 -24.337200 -2.192480 -6.469440 -0.000000 -171.206000 5.236240 -1.596400 39.081100 -0.000007 -0.000012 0.509496 -0.808963 32.204700 40.985400 -0.000006 -0.000013 -1.797030 2.968040 -78.538500 11.754300 -0.000000 0.000003 -0.000231 0.171430 -9.623500 -2.192510 6.469440 -0.000001 -169.223000 15.269600 -173.232000 -39.081100 -0.002282 -0.040193 0.181315 -0.568014 17.398800 -40.985400 0.000008 0.000006 8.389530 3.843980 -72.412500 -11.754300 -0.000006 -0.000006 -0.008719 0.261467 -5.953200
0.000000 0.000000 0.000000 0.000000 0.000000 -0.000000 -6.375220 91.129000 -0.558142 83.662000 0.852545 8.298280 15.735700 0.000005 -0.000001 77.785600 85.689700 -75.334100 8.984550 -0.406207 -0.000000 0.706930 -1.974130 4.911960 16.377300 -0.000001 -0.000001 16.086300 2.748730 2.821780 6.456720 -0.000001 -0.000000 -3.986250 1.666280 12.156000 12.994200 -0.242716 4.980390 -92.774000 7.498570 -69.631100 5.348090 -0.000007 -0.000001 -76.102200 -25.494700 -8.217480 24.328600 0.000019 0.000005 48.343900 -42.436200 -120.975000 22.291600 -0.000001 0.000005 62.027300 4.985310 7.630880 12.994500 -0.242716 -4.980390 86.530900 8.384540 -67.425200 -5.348130 -0.000001 -0.000004 -66.061800 -5.213720 -6.653580 -24.328900 0.000322 -0.000009 19.180400 -19.555800 -133.897000 -22.291500 -0.000108 -0.000004 56.396400 5.673730 -24.202000 -2.192480 -6.469440 -0.000000 -171.218000 5.239810 -1.569290 39.081100 -0.000007 -0.000012 0.504016 -0.799582 32.226700 40.985400 -0.000006 -0.000013 -1.802720 2.894050 -78.528100 11.754300 -0.000000 0.000003 -0.000191 0.170780 -9.649890 -2.192510 6.469440 -0.000001 -169.252000 15.302900 -173.203000 -39.081100 -0.002282 -0.040193 0.182062 -0.569171 17.434100 -40.985400 0.000008 0.000006 8.385200 3.902510 -72.430400 -11.754300 -0.000006 -0.000006 -0.008610 0.260606 -5.988360
0.000000 0.000000 0.000000 0.000000 0.000000 -0.000000 -6.334960 91.132100 -0.531148 83.658400 0.752964 8.325240 15.735700 0.000005 -0.000001 77.936600 85.702100 -75.490200 8.984550 -0.406207 -0.000000 0.686783 -1.946870 4.901170 16.377300 -0.000001 -0.000001 16.121900 2.782010 2.794790 6.456720 -0.000001 -0.000000 -4.005880 1.728090 12.081500 12.994200 -0.242716 4.980390 -92.764500 7.457830 -69.593700 5.348090 -0.000007 -0.000001 -76.603400 -26.267500 -8.805920 24.328600 0.000019 0.000005 47.062300 -40.945200 -121.374000 22.291600 -0.000001 0.000005 61.855500 4.918330 9.015510 12.994500 -0.242716 -4.980390 86.521500 8.399310 -67.405600 -5.348130 -0.000001 -0.000004 -66.768300 -6.217080 -7.141340 -24.328900 0.000322 -0.000009 16.563900 -16.680300 -133.979000 -22.291500 -0.000108 -0.000004 56.923600 5.681010 -21.959200 -2.192480 -6.469440 -0.000000 -171.255000 5.231220 -1.466950 39.081100 -0.000007 -0.000012 0.502027 -0.797554 32.190200 40.985400 -0.000006 -0.000013 -1.789560 2.821380 -78.554600 11.754300 -0.000000 0.000003 -0.000258 0.171853 -9.606300 -2.192510 6.469440 -0.000001 -169.251000 15.079600 -173.163000 -39.081100 -0.002282 -0.040193 0.182255 -0.569180 17.451500 -40.985400 0.000008 0.000006 8.341760 3.833370 -72.419700 -11.754300 -0.000006 -0.000006 -0.008471 0.259504 -6.033370
0.000000 0.000000 0.000000 0.000000 0.000000 -0.000000 -6.307300 91.133800 -0.517786 83.689500 0.702437 8.296530 15.735700 0.000005 -0.000001 77.760800 85.727500 -75.332700 8.984550 -0.406207 -0.000000 0.631494 -1.961920 4.863800 16.377300 -0.000001 -0.000001 16.167500 2.806070 2.771550 6.456720 -0.000001 -0.000000 -4.000430 1.821220 12.047600 12.994200 -0.242716 4.980390 -92.745000 7.372570 -69.512400 5.348090 -0.000007 -0.000001 -77.379800 -27.730600 -9.389710 24.328600 0.000019 0.000005 43.136700 -37.375800 -122.936000 22.291600 -0.000001 0.000005 60.241300 4.788700 11.548800 12.994500 -0.242716 -4.980390 86.518600 8.409190 -67.412500 -5.348130 -0.000001 -0.000004 -67.675800 -7.787790 -7.526590 -24.328900 0.000322 -0.000009 13.572200 -13.309200 -133.636000 -22.291500 -0.000108 -0.000004 57.377600 5.673280 -18.025900 -2.192480 -6.469440 -0.000000 -171.315000 5.233240 -1.458980 39.081100 -0.000007 -0.000012 0.500511 -0.795983 32.162900 40.985400 -0.000006 -0.000013 -1.775780 2.773940 -78.551500 11.754300 -0.000000 0.000003 -0.000160 0.170271 -9.670560 -2.192510 6.469440 -0.000001 -169.287000 15.020600 -173.203000 -39.081100 -0.002282 -0.040193 0.183388 -0.571113 17.499500 -40.985400 0.000008 0.000006 8.319110 3.811550 -72.445000 -11.754300 -0.000006 -0.000006 -0.008657 0.260982 -5.973020
